<!-- public/google-logo.svg -->
<svg xmlns="http://www.w3.org/2000/svg" viewBox="0 0 533.5 544.3" width="20" height="20">
  <path fill="#4285F4" d="M533.5 278.4c0-17.4-1.5-34.1-4.3-50.4H272v95.5h147.5c-6.4 34.5-25.7 63.7-54.8 83.2v68h88.4c51.7-47.6 80.4-117.8 80.4-196.3z"></path>
  <path fill="#34A853" d="M272 544.3c73.9 0 135.8-24.5 181-66.6l-88.4-68c-24.6 16.5-56.1 26.3-92.6 26.3-71 0-131.2-47.9-152.6-112.1h-90v70.4c45.2 89.6 137.8 150 242.6 150z"></path>
  <path fill="#FBBC05" d="M119.4 323.9c-10.8-32.2-10.8-66.7 0-98.9v-70.4h-90C11.2 201.3 0 238 0 278.4s11.2 77.1 29.4 123.7l90-70.4z"></path>
  <path fill="#EA4335" d="M272 107.7c39.9 0 75.7 13.8 104 40.8l77.6-77.6C407.8 24.5 345.9 0 272 0 167.2 0 74.6 60.4 29.4 150l90 70.4c21.4-64.1 81.6-112.1 152.6-112.1z"></path>
</svg>
